<?xml version="1.0" standalone="no"?>
<!DOCTYPE svg PUBLIC "-//W3C//DTD SVG 20010904//EN"
 "http://www.w3.org/TR/2001/REC-SVG-20010904/DTD/svg10.dtd">
<svg version="1.0" xmlns="http://www.w3.org/2000/svg"
 width="126.000000pt" height="126.000000pt" viewBox="0 0 126.000000 126.000000"
 preserveAspectRatio="xMidYMid meet">
<metadata>
Created by potrace 1.14, written by Peter Selinger 2001-2017
</metadata>
<g transform="translate(0.000000,126.000000) scale(0.100000,-0.100000)"
fill="#000000" stroke="none">
<path d="M419 1185 c-13 -8 -40 -13 -60 -13 -47 0 -75 -15 -94 -52 -9 -17 -24
-30 -33 -30 -27 0 -71 -51 -73 -85 -4 -75 19 -105 80 -105 43 0 48 -4 86 -77
l27 -53 -21 -26 c-29 -37 -62 -130 -63 -178 0 -24 8 -59 20 -81 11 -22 23 -61
26 -87 10 -77 44 -172 75 -215 91 -125 280 -185 414 -131 226 92 386 327 314
461 -12 20 -24 37 -27 37 -11 0 -30 49 -30 74 0 34 -33 70 -66 72 -16 1 -32 3
-36 3 -4 1 -19 26 -34 56 -30 65 -64 87 -122 80 -31 -4 -43 0 -58 16 -28 31
-85 57 -116 54 -22 -3 -34 6 -67 49 -34 45 -37 55 -26 67 8 8 21 30 29 49 13
32 13 40 0 67 -24 49 -97 73 -145 48z"/>
</g>
</svg>
